<svg width="26" height="26" viewBox="0 0 26 26" fill="none" xmlns="http://www.w3.org/2000/svg">
<g clip-path="url(#clip0)">
<path d="M25.6191 22.383H25.4632L23.6944 18.2561C23.2901 17.3126 22.2448 16.8264 21.2629 17.1254L18.7301 17.8962L17.7528 17.5834C17.5727 17.5257 17.4515 17.3598 17.4515 17.1708V16.731C17.4515 16.2093 17.1176 15.7519 16.6207 15.5928L15.2754 15.1624C15.0366 15.086 14.7734 15.1284 14.5708 15.2764C14.3683 15.4242 14.2475 15.6622 14.2475 15.9128V16.4258C14.2475 16.4301 14.2475 16.439 14.2366 16.447C14.2259 16.4547 14.2174 16.4521 14.2132 16.4507L13.3809 16.1843V7.6761H17.8849C18.0291 7.6761 18.161 7.59457 18.2255 7.46564C18.29 7.3365 18.2761 7.18217 18.1896 7.06673L17.1397 5.66707L18.1894 4.26721C18.2761 4.15176 18.29 3.99744 18.2255 3.8685C18.161 3.73936 18.0291 3.65784 17.8847 3.65784H13.3809V3.22461C13.3809 3.01434 13.2103 2.84375 13 2.84375C12.7897 2.84375 12.6191 3.01434 12.6191 3.22461V19.2626L7.46742 16.9578L8.2946 15.9239C8.51062 15.6539 8.8774 15.5432 9.20688 15.6486L11.2558 16.3042C11.4561 16.3684 11.6706 16.2579 11.7346 16.0576C11.7987 15.8572 11.6882 15.6428 11.4879 15.5787L9.43896 14.9231C8.81075 14.722 8.11171 14.9331 7.69971 15.4482L6.74895 16.6364L5.34869 16.01C4.94978 15.8316 4.50644 15.8225 4.10059 15.9846C3.69473 16.1467 3.37953 16.4583 3.2131 16.8625L0.940048 22.383H0.380859C0.170593 22.383 0 22.5536 0 22.7639C0 22.9742 0.170593 23.1447 0.380859 23.1447H25.6191C25.8294 23.1447 26 22.9742 26 22.7639C26 22.5536 25.8294 22.383 25.6191 22.383V22.383ZM13.3809 4.41956H17.123L16.4732 5.28601H14.6282C14.4179 5.28601 14.2473 5.4566 14.2473 5.66687C14.2473 5.87733 14.4179 6.04773 14.6282 6.04773H16.4732L17.123 6.91438H13.3809V4.41956ZM13.9811 17.1762C14.2197 17.2527 14.4832 17.2101 14.6857 17.0623C14.8882 16.9145 15.009 16.6765 15.009 16.4258V15.9128C15.009 15.9086 15.009 15.8995 15.0199 15.8918C15.0307 15.8838 15.0392 15.8866 15.0434 15.8878L16.3887 16.3184C16.5688 16.376 16.6898 16.5418 16.6898 16.731V17.1708C16.6898 17.6687 16.9943 18.1073 17.4541 18.2846L13.3809 19.5242V16.9841L13.9811 17.1762ZM15.6434 22.383L6.63132 18.3513C6.4393 18.2654 6.21396 18.3515 6.12827 18.5433C6.04237 18.7353 6.12827 18.9606 6.32028 19.0465L13.7782 22.383H1.76366L3.63264 17.8441L4.75836 18.3477C4.80894 18.3703 4.86171 18.381 4.91368 18.381C5.05928 18.381 5.19833 18.2971 5.26161 18.1557C5.3475 17.9637 5.26141 17.7383 5.0694 17.6524L3.92345 17.1397C4.01192 16.934 4.17438 16.7751 4.38306 16.6918C4.5959 16.6069 4.82838 16.6116 5.03766 16.7052L17.7292 22.383H15.6434ZM19.5944 22.383L14.335 20.03L21.4846 17.8542C22.0942 17.6685 22.7433 17.9704 22.9944 18.5562L24.6345 22.383H19.5944Z" fill="black"/>
<path d="M6.07985 11.7467C7.63661 11.7467 8.90317 10.4804 8.90317 8.92361C8.90317 8.4283 8.77284 7.94072 8.52647 7.51384C8.42134 7.33174 8.18826 7.26926 8.00617 7.37439C7.82407 7.47952 7.76158 7.7124 7.86672 7.8947C8.04643 8.20593 8.14125 8.5616 8.14125 8.92342C8.14125 10.0602 7.21648 10.985 6.07985 10.985C4.94302 10.985 4.01825 10.0602 4.01825 8.92342C4.01825 7.78679 4.94302 6.86201 6.07985 6.86201C6.31551 6.86201 6.5464 6.90129 6.76639 6.97885C6.96475 7.04907 7.18216 6.94493 7.25238 6.74657C7.3224 6.5482 7.21826 6.3306 7.0199 6.26057C6.71838 6.15425 6.40219 6.1003 6.07985 6.1003C4.52309 6.1003 3.25653 7.36665 3.25653 8.92342C3.25653 10.4804 4.52309 11.7467 6.07985 11.7467Z" fill="black"/>
<path d="M1.60199 9.30447H2.00903C2.2195 9.30447 2.38989 9.13388 2.38989 8.92361C2.38989 8.71315 2.2195 8.54276 2.00903 8.54276H1.60199C1.39172 8.54276 1.22113 8.71315 1.22113 8.92361C1.22113 9.13388 1.39172 9.30447 1.60199 9.30447Z" fill="black"/>
<path d="M10.1505 9.30447H10.5576C10.768 9.30447 10.9384 9.13388 10.9384 8.92361C10.9384 8.71315 10.768 8.54276 10.5576 8.54276H10.1505C9.94025 8.54276 9.76965 8.71315 9.76965 8.92361C9.76965 9.13388 9.94025 9.30447 10.1505 9.30447Z" fill="black"/>
<path d="M6.07983 5.23364C6.2901 5.23364 6.46069 5.06305 6.46069 4.85278V4.44574C6.46069 4.23547 6.2901 4.06488 6.07983 4.06488C5.86957 4.06488 5.69897 4.23547 5.69897 4.44574V4.85278C5.69897 5.06325 5.86937 5.23364 6.07983 5.23364Z" fill="black"/>
<path d="M5.69897 12.9942V13.4013C5.69897 13.6116 5.86957 13.7822 6.07983 13.7822C6.2901 13.7822 6.46069 13.6116 6.46069 13.4013V12.9942C6.46069 12.7838 6.2901 12.6134 6.07983 12.6134C5.86957 12.6134 5.69897 12.7838 5.69897 12.9942Z" fill="black"/>
<path d="M3.20498 6.4274C3.30218 6.4274 3.39938 6.3905 3.47357 6.31651C3.62274 6.16814 3.62313 5.92693 3.47476 5.77776L3.47198 5.77498C3.3234 5.62581 3.08378 5.6268 2.93461 5.77518C2.78564 5.92375 2.78663 6.16635 2.93501 6.31532C3.00939 6.39011 3.10719 6.4274 3.20498 6.4274Z" fill="black"/>
<path d="M9.2269 11.5301C9.07773 11.3819 8.8379 11.3843 8.68973 11.5339C8.54155 11.6831 8.54413 11.9259 8.69349 12.0738C8.76768 12.1474 8.86468 12.1843 8.96168 12.1843C9.05968 12.1843 9.15767 12.1466 9.23206 12.0717C9.38023 11.9223 9.37924 11.6811 9.22987 11.5329L9.2269 11.5301Z" fill="black"/>
<path d="M8.9589 6.4274C9.0561 6.4274 9.1533 6.3905 9.22749 6.31651L9.23046 6.31354C9.37943 6.16516 9.37864 5.92554 9.23006 5.77637C9.08169 5.6274 8.83909 5.62839 8.69012 5.77677C8.54095 5.92514 8.54055 6.16635 8.68893 6.31532C8.76331 6.39011 8.86111 6.4274 8.9589 6.4274Z" fill="black"/>
<path d="M3.20199 12.1843C3.29938 12.1843 3.39698 12.147 3.47137 12.0726L3.47414 12.0699C3.62292 11.9211 3.62153 11.6813 3.47276 11.5327C3.32398 11.3839 3.08138 11.3853 2.93281 11.5341C2.78403 11.6829 2.78403 11.9239 2.93281 12.0726C3.007 12.147 3.10459 12.1843 3.20199 12.1843Z" fill="black"/>
</g>
<defs>
<clipPath id="clip0">
<rect width="26" height="26" fill="white"/>
</clipPath>
</defs>
</svg>
