<svg width="33" height="35" viewBox="0 0 33 35" fill="none" xmlns="http://www.w3.org/2000/svg">
<g clip-path="url(#clip0)">
<path d="M26.4 24.1808C23.65 24.1808 21.45 26.4474 21.45 29.2808C21.45 32.1141 23.65 34.3808 26.4 34.3808C29.15 34.3808 31.35 32.1141 31.35 29.2808C31.35 26.4474 29.15 24.1808 26.4 24.1808ZM30.098 30.3959C29.7348 31.7001 28.7482 32.7166 27.4823 33.0908C27.4246 32.8398 27.2261 32.6808 26.95 32.6808C26.62 32.6808 26.4 32.9074 26.4 33.2474C24.255 33.2474 22.55 31.4908 22.55 29.2808C22.55 27.0708 24.255 25.3141 26.4 25.3141C28.545 25.3141 30.25 27.0708 30.25 29.2808C29.92 29.2808 29.7 29.5074 29.7 29.8474C29.7 30.1319 29.8544 30.3365 30.098 30.3959Z" fill="black"/>
<path d="M12.65 27.5807C10.835 27.5807 9.35004 29.1107 9.35004 30.9807C9.35004 32.8507 10.835 34.3807 12.65 34.3807C14.465 34.3807 15.95 32.8507 15.95 30.9807C15.95 29.1107 14.465 27.5807 12.65 27.5807ZM13.693 32.9747C13.6074 32.7918 13.4308 32.6807 13.2 32.6807C12.87 32.6807 12.65 32.9074 12.65 33.2474C11.4401 33.2474 10.4501 32.2274 10.4501 30.9807C10.4501 29.7341 11.4401 28.7141 12.65 28.7141C13.86 28.7141 14.85 29.7341 14.85 30.9807C14.52 30.9807 14.3 31.2074 14.3 31.5474C14.3 31.7851 14.4078 31.9671 14.5853 32.0553C14.3809 32.4434 14.0696 32.764 13.693 32.9747Z" fill="black"/>
<path d="M18.315 20.3841C18.095 20.6107 18.095 20.9507 18.315 21.1775C18.535 21.4041 18.865 21.4041 19.085 21.1775C19.305 20.9508 19.305 20.6108 19.085 20.3841C18.865 20.1574 18.535 20.1574 18.315 20.3841Z" fill="black"/>
<path d="M15.015 17.7774L16.665 19.4774C16.775 19.5908 16.885 19.6474 17.05 19.6474C17.215 19.6474 17.325 19.5908 17.435 19.4774C17.6549 19.2508 17.6549 18.9108 17.435 18.684L15.785 16.984C15.565 16.7574 15.235 16.7574 15.015 16.984C14.7949 17.2107 14.795 17.5508 15.015 17.7774Z" fill="black"/>
<path d="M22 24.7474C22.165 24.7474 22.275 24.6908 22.3849 24.5774C22.6049 24.3508 22.6049 24.0108 22.3849 23.784L20.7349 22.084C20.515 21.8574 20.185 21.8574 19.9649 22.084C19.7449 22.3107 19.7449 22.6507 19.9649 22.8774L21.6149 24.5774C21.725 24.6908 21.835 24.7474 22 24.7474Z" fill="black"/>
<path d="M14.465 20.9507C14.2451 21.1774 14.2451 21.5174 14.465 21.7441C14.685 21.9707 15.015 21.9707 15.235 21.7441C15.455 21.5175 15.455 21.1775 15.235 20.9507C15.015 20.7241 14.685 20.7241 14.465 20.9507Z" fill="black"/>
<path d="M11.935 17.5508C11.715 17.3241 11.385 17.3241 11.1649 17.5508C10.9449 17.7774 10.945 18.1174 11.1649 18.3441L12.8149 20.0441C12.925 20.1575 13.0349 20.2141 13.1999 20.2141C13.3649 20.2141 13.4749 20.1575 13.5849 20.0441C13.8049 19.8175 13.8049 19.4775 13.5849 19.2507L11.935 17.5508Z" fill="black"/>
<path d="M16.885 22.6507C16.665 22.4241 16.335 22.4241 16.1149 22.6507C15.895 22.8774 15.895 23.2174 16.1149 23.4441L17.7649 25.1441C17.875 25.2575 17.9849 25.3141 18.1499 25.3141C18.3149 25.3141 18.4249 25.2575 18.5349 25.1441C18.7549 24.9175 18.7549 24.5775 18.5349 24.3507L16.885 22.6507Z" fill="black"/>
<path d="M20.185 17.7774C20.405 17.5507 20.405 17.2107 20.185 16.984C19.965 16.7573 19.635 16.7574 19.415 16.984C19.195 17.2107 19.195 17.5507 19.415 17.7774C19.635 18.0041 19.965 18.0041 20.185 17.7774Z" fill="black"/>
<path d="M17.765 16.0774C17.875 16.1908 17.985 16.2474 18.15 16.2474C18.315 16.2474 18.425 16.1908 18.535 16.0774C18.755 15.8508 18.755 15.5108 18.535 15.284L16.885 13.584C16.665 13.3574 16.335 13.3574 16.115 13.584C15.8949 13.8107 15.895 14.1507 16.115 14.3774L17.765 16.0774Z" fill="black"/>
<path d="M22.715 21.1774C22.8251 21.2907 22.935 21.3474 23.1 21.3474C23.265 21.3474 23.375 21.2907 23.485 21.1774C23.705 20.9507 23.705 20.6107 23.485 20.384L21.835 18.684C21.615 18.4574 21.285 18.4574 21.065 18.684C20.8449 18.9107 20.845 19.2507 21.065 19.4774L22.715 21.1774Z" fill="black"/>
<path d="M9.51502 11.3174C9.29504 11.5441 9.29504 11.8841 9.51502 12.1108C9.735 12.3375 10.065 12.3374 10.285 12.1108C10.5051 11.8841 10.505 11.5441 10.285 11.3174C10.0651 11.0907 9.735 11.0908 9.51502 11.3174Z" fill="black"/>
<path d="M7.865 10.4107C7.97502 10.5241 8.08498 10.5807 8.24998 10.5807C8.41498 10.5807 8.525 10.5241 8.63496 10.4107C8.85493 10.1841 8.85493 9.8441 8.63496 9.61739L6.98496 7.91739C6.76498 7.69074 6.43498 7.69074 6.21493 7.91739C5.99489 8.14403 5.99496 8.48403 6.21493 8.71075L7.865 10.4107Z" fill="black"/>
<path d="M11.165 13.0174C10.9451 13.244 10.9451 13.584 11.165 13.8108L12.815 15.5107C12.9251 15.6241 13.035 15.6807 13.2 15.6807C13.365 15.6807 13.475 15.6241 13.585 15.5107C13.805 15.2841 13.805 14.9441 13.585 14.7174L11.935 13.0174C11.715 12.7908 11.385 12.7908 11.165 13.0174Z" fill="black"/>
<path d="M6.43497 12.6774C6.65495 12.4507 6.65495 12.1107 6.43497 11.884C6.21499 11.6573 5.88499 11.6574 5.66495 11.884C5.4449 12.1107 5.44497 12.4507 5.66495 12.6774C5.88493 12.9041 6.21499 12.9041 6.43497 12.6774Z" fill="black"/>
<path d="M4.01496 10.9774C4.12498 11.0908 4.23494 11.1474 4.39994 11.1474C4.56494 11.1474 4.67496 11.0908 4.78492 10.9774C5.0049 10.7508 5.0049 10.4108 4.78492 10.184L3.13492 8.48404C2.91494 8.2574 2.58494 8.2574 2.3649 8.48404C2.14486 8.71068 2.14492 9.05068 2.3649 9.2774L4.01496 10.9774Z" fill="black"/>
<path d="M9.35002 16.2474C9.51502 16.2474 9.62504 16.1908 9.73499 16.0774C9.95497 15.8508 9.95497 15.5108 9.73499 15.284L8.08499 13.584C7.86502 13.3574 7.53501 13.3574 7.31497 13.584C7.09493 13.8107 7.09499 14.1507 7.31497 14.3774L8.96497 16.0774C9.07499 16.1908 9.18502 16.2474 9.35002 16.2474Z" fill="black"/>
<path d="M11.385 8.71075C11.605 8.4841 11.605 8.1441 11.385 7.91739C11.165 7.69074 10.835 7.69074 10.615 7.91739C10.3949 8.14403 10.395 8.48404 10.615 8.71075C10.8349 8.93746 11.165 8.93739 11.385 8.71075Z" fill="black"/>
<path d="M8.96497 7.01075C9.07499 7.12411 9.18495 7.18075 9.34995 7.18075C9.51495 7.18075 9.62497 7.12411 9.73493 7.01075C9.95491 6.78411 9.95491 6.44411 9.73493 6.2174L8.08493 4.5174C7.86495 4.29075 7.53495 4.29075 7.31491 4.5174C7.09487 4.74404 7.09493 5.08404 7.31491 5.31075L8.96497 7.01075Z" fill="black"/>
<path d="M13.915 12.1108C14.025 12.2241 14.135 12.2808 14.3 12.2808C14.465 12.2808 14.575 12.2241 14.6849 12.1108C14.9049 11.8841 14.9049 11.5441 14.6849 11.3174L13.0349 9.6174C12.815 9.39076 12.485 9.39076 12.2649 9.6174C12.0449 9.84405 12.0449 10.184 12.2649 10.4108L13.915 12.1108Z" fill="black"/>
<path d="M5.115 23.2174C4.89502 23.444 4.89502 23.784 5.115 24.0108C5.33498 24.2375 5.66498 24.2374 5.88502 24.0108C6.10506 23.7841 6.105 23.4441 5.88502 23.2174C5.66504 22.9907 5.33498 22.9908 5.115 23.2174Z" fill="black"/>
<path d="M3.46501 22.3107C3.57503 22.4241 3.68499 22.4807 3.84999 22.4807C4.01499 22.4807 4.12501 22.4241 4.23497 22.3107C4.45495 22.0841 4.45495 21.7441 4.23497 21.5174L2.58497 19.8174C2.36499 19.5907 2.03499 19.5907 1.81495 19.8174C1.59497 20.044 1.59497 20.384 1.81495 20.6107L3.46501 22.3107Z" fill="black"/>
<path d="M9.18501 26.6174L7.53501 24.9174C7.31503 24.6908 6.98503 24.6908 6.76498 24.9174C6.54494 25.144 6.54501 25.484 6.76498 25.7108L8.41498 27.4108C8.52501 27.5241 8.63496 27.5807 8.79996 27.5807C8.96496 27.5807 9.07498 27.5241 9.18494 27.4108C9.40498 27.1841 9.40499 26.8441 9.18501 26.6174Z" fill="black"/>
<path d="M1.26502 23.7841C1.04504 24.0108 1.04504 24.3507 1.26502 24.5775C1.485 24.8042 1.815 24.8041 2.03504 24.5775C2.25509 24.3508 2.25502 24.0108 2.03504 23.7841C1.81506 23.5574 1.485 23.5574 1.26502 23.7841Z" fill="black"/>
<path d="M3.68501 25.4841C3.46503 25.2575 3.13503 25.2575 2.91498 25.4841C2.69501 25.7108 2.69501 26.0508 2.91498 26.2775L4.56498 27.9775C4.67501 28.0908 4.78496 28.1475 4.94996 28.1475C5.11496 28.1475 5.22499 28.0908 5.33494 27.9775C5.55492 27.7508 5.55492 27.4108 5.33494 27.1841L3.68501 25.4841Z" fill="black"/>
<path d="M6.98496 20.6108C7.20494 20.3841 7.20494 20.0441 6.98496 19.8174C6.76498 19.5907 6.43498 19.5907 6.21494 19.8174C5.99489 20.044 5.99496 20.384 6.21494 20.6108C6.43491 20.8375 6.76498 20.8374 6.98496 20.6108Z" fill="black"/>
<path d="M2.91505 16.4174C2.69507 16.644 2.69507 16.984 2.91505 17.2107L4.56505 18.9107C4.67507 19.0241 4.78502 19.0807 4.95002 19.0807C5.11502 19.0807 5.22505 19.0241 5.335 18.9107C5.55498 18.6841 5.55498 18.3441 5.335 18.1174L3.685 16.4174C3.46502 16.1907 3.13502 16.1907 2.91505 16.4174Z" fill="black"/>
<path d="M9.51502 24.0107C9.62505 24.1241 9.735 24.1807 9.9 24.1807C10.065 24.1807 10.175 24.1241 10.285 24.0107C10.505 23.7841 10.505 23.4441 10.285 23.2174L8.63498 21.5174C8.415 21.2908 8.085 21.2908 7.86496 21.5174C7.64492 21.744 7.64498 22.084 7.86496 22.3107L9.51502 24.0107Z" fill="black"/>
<path d="M25.3 15.1141C25.3 16.9841 26.785 18.5141 28.6 18.5141C30.415 18.5141 31.9 16.9841 31.9 15.1141C31.9 13.2441 30.415 11.7141 28.6 11.7141C26.785 11.7141 25.3 13.2441 25.3 15.1141ZM28.6 12.8474C29.81 12.8474 30.8 13.8674 30.8 15.114C30.47 15.114 30.25 15.3407 30.25 15.6807C30.25 15.9184 30.3578 16.1004 30.5353 16.1886C30.3308 16.5767 30.0196 16.8973 29.6429 17.108C29.5573 16.9251 29.3807 16.814 29.15 16.814C28.82 16.814 28.6 17.0407 28.6 17.3807C27.39 17.3807 26.4 16.3607 26.4 15.114C26.4 13.8674 27.39 12.8474 28.6 12.8474Z" fill="black"/>
<path d="M21.065 7.35074C20.845 7.57738 20.845 7.91738 21.065 8.1441C21.285 8.37081 21.615 8.37074 21.835 8.1441C22.055 7.91745 22.055 7.57745 21.835 7.35074C21.615 7.12409 21.285 7.12409 21.065 7.35074Z" fill="black"/>
<path d="M19.415 6.4441C19.525 6.55746 19.635 6.6141 19.8 6.6141C19.965 6.6141 20.075 6.55746 20.1849 6.4441C20.4049 6.21746 20.4049 5.87746 20.1849 5.65075L18.5349 3.95075C18.315 3.7241 17.985 3.7241 17.7649 3.95075C17.5449 4.17739 17.5449 4.51739 17.7649 4.7441L19.415 6.4441Z" fill="black"/>
<path d="M22.715 9.05075C22.4951 9.2774 22.4951 9.6174 22.715 9.84411L24.365 11.5441C24.4751 11.6575 24.585 11.7141 24.75 11.7141C24.915 11.7141 25.025 11.6575 25.135 11.5441C25.355 11.3175 25.355 10.9775 25.135 10.7508L23.485 9.05075C23.265 8.82411 22.935 8.82411 22.715 9.05075Z" fill="black"/>
<path d="M17.985 8.71074C18.205 8.48409 18.205 8.14409 17.985 7.91738C17.765 7.69067 17.435 7.69074 17.215 7.91738C16.995 8.14403 16.995 8.48403 17.215 8.71074C17.435 8.93745 17.765 8.93738 17.985 8.71074Z" fill="black"/>
<path d="M21.285 11.3174L19.635 9.6174C19.415 9.39076 19.085 9.39076 18.865 9.6174C18.6449 9.84405 18.645 10.184 18.865 10.4108L20.515 12.1108C20.625 12.2241 20.7349 12.2808 20.8999 12.2808C21.0649 12.2808 21.175 12.2241 21.2849 12.1108C21.505 11.8841 21.505 11.5441 21.285 11.3174Z" fill="black"/>
<path d="M22.935 4.7441C23.155 4.51746 23.155 4.17746 22.935 3.95075C22.715 3.7241 22.385 3.7241 22.165 3.95075C21.945 4.17739 21.945 4.51739 22.165 4.7441C22.385 4.97075 22.715 4.97075 22.935 4.7441Z" fill="black"/>
<path d="M20.515 3.04411C20.625 3.15746 20.7349 3.21411 20.8999 3.21411C21.0649 3.21411 21.175 3.15746 21.2849 3.04411C21.5049 2.81746 21.5049 2.47746 21.2849 2.25075L19.6349 0.550751C19.4149 0.324107 19.0849 0.324107 18.8649 0.550751C18.6449 0.777396 18.6449 1.1174 18.8649 1.34411L20.515 3.04411Z" fill="black"/>
<path d="M25.465 8.14411C25.575 8.25747 25.6849 8.31411 25.8499 8.31411C26.0149 8.31411 26.125 8.25747 26.2349 8.14411C26.4549 7.91747 26.4549 7.57747 26.2349 7.35076L24.5849 5.65076C24.3649 5.42411 24.0349 5.42411 23.8149 5.65076C23.5949 5.8774 23.5949 6.2174 23.8149 6.44411L25.465 8.14411Z" fill="black"/>
<path d="M26.95 29.2807C26.62 29.2807 26.4 29.5074 26.4 29.8474C26.4 30.1874 26.62 30.414 26.95 30.414C27.28 30.414 27.5 30.1874 27.5 29.8474C27.5 29.5074 27.28 29.2807 26.95 29.2807Z" fill="black"/>
<path d="M28.6 30.9808C28.27 30.9808 28.05 31.2074 28.05 31.5474C28.05 31.8874 28.27 32.114 28.6 32.114C28.93 32.114 29.1499 31.8874 29.1499 31.5474C29.1499 31.2074 28.93 30.9808 28.6 30.9808Z" fill="black"/>
<path d="M25.85 30.9808C25.52 30.9808 25.3 31.2074 25.3 31.5474C25.3 31.8874 25.52 32.114 25.85 32.114C26.18 32.114 26.4 31.8874 26.4 31.5474C26.4 31.2074 26.18 30.9808 25.85 30.9808Z" fill="black"/>
<path d="M28.6 28.1474C28.27 28.1474 28.05 28.374 28.05 28.714C28.05 29.054 28.27 29.2807 28.6 29.2807C28.93 29.2807 29.1499 29.054 29.1499 28.714C29.1499 28.374 28.93 28.1474 28.6 28.1474Z" fill="black"/>
<path d="M13.2 30.9808C12.87 30.9808 12.65 31.2074 12.65 31.5474C12.65 31.8874 12.87 32.114 13.2 32.114C13.53 32.114 13.75 31.8874 13.75 31.5474C13.75 31.2074 13.53 30.9808 13.2 30.9808Z" fill="black"/>
<path d="M29.15 16.2474C29.48 16.2474 29.7 16.0207 29.7 15.6807C29.7 15.3407 29.48 15.1141 29.15 15.1141C28.82 15.1141 28.6 15.3407 28.6 15.6807C28.6 16.0207 28.82 16.2474 29.15 16.2474Z" fill="black"/>
</g>
<defs>
<clipPath id="clip0">
<rect y="0.380737" width="33" height="34" fill="white"/>
</clipPath>
</defs>
</svg>
