<svg width="26" height="26" viewBox="0 0 26 26" fill="none" xmlns="http://www.w3.org/2000/svg">
<g clip-path="url(#clip0)">
<path d="M25.1634 21.3393L24.1647 20.6069L24.1979 19.3419C24.1979 19.2087 24.1314 19.1088 24.0315 19.0423C23.9316 18.9757 23.7985 19.009 23.6653 19.0755L22.6333 19.8079L21.4681 19.4085C21.3349 19.3752 21.2018 19.4085 21.1352 19.475C21.0353 19.5749 21.002 19.7081 21.0353 19.8079L21.4348 21.0064L20.6691 22.0051C20.6026 22.105 20.5693 22.2382 20.6358 22.3713C20.7024 22.4712 20.8023 22.5711 20.9355 22.5711H22.2005L22.8996 23.6031C22.9662 23.7029 23.0661 23.7362 23.1659 23.7362H23.1992C23.3324 23.7029 23.4323 23.6364 23.4655 23.5032L23.865 22.3047L25.0635 21.9385C25.1967 21.9052 25.2632 21.8054 25.2965 21.6722C25.3298 21.5391 25.2632 21.4392 25.1634 21.3393ZM23.4988 21.7055C23.399 21.7388 23.2991 21.8054 23.2658 21.9052L23.0661 22.6376L22.6333 22.0051C22.5667 21.9053 22.4668 21.872 22.367 21.872H21.6013L22.0673 21.2727C22.1339 21.1729 22.1672 21.073 22.1339 20.9731L21.9009 20.2407L22.6 20.507C22.6999 20.5403 22.833 20.5403 22.8996 20.4738L23.4988 20.041L23.4655 20.8067C23.4655 20.9065 23.4988 21.0064 23.5987 21.073L24.1979 21.5058L23.4988 21.7055Z" fill="black"/>
<path d="M8.41816 2.89629L7.41944 2.1639L7.45274 0.898851C7.45274 0.765688 7.38615 0.665816 7.28628 0.599235C7.18641 0.532654 7.05325 0.565944 6.92008 0.632526L5.88808 1.36492L4.75619 0.965432C4.62303 0.932141 4.48987 0.965432 4.42329 1.03201C4.32342 1.13189 4.29013 1.26505 4.32342 1.36492L4.7229 2.56338L3.95722 3.5621C3.85735 3.66197 3.85735 3.82843 3.89064 3.9283C3.95722 4.02817 4.05709 4.12804 4.19025 4.12804H5.4553L6.1544 5.16005C6.22098 5.25993 6.32085 5.29322 6.42073 5.29322H6.45402C6.58718 5.25993 6.68705 5.19334 6.72034 5.06018L7.11983 3.86172L8.31829 3.49552C8.45145 3.46223 8.51803 3.36236 8.55133 3.2292C8.58462 3.09603 8.51803 2.96287 8.41816 2.89629ZM6.75363 3.26249C6.65376 3.29578 6.55389 3.36236 6.5206 3.46223L6.28756 4.19463L5.85478 3.5621C5.7882 3.46223 5.68833 3.42894 5.58846 3.42894H4.82278L5.28884 2.82971C5.38872 2.76313 5.42201 2.66326 5.38872 2.53009L5.15568 1.7977L5.85478 2.06402C5.95466 2.09731 6.08782 2.09731 6.1544 2.03073L6.75363 1.59795V2.36364C6.75363 2.46351 6.78692 2.56338 6.88679 2.62996L7.48603 3.06274L6.75363 3.26249Z" fill="black"/>
<path d="M6.25425 10.653C6.18767 10.5531 6.05451 10.4866 5.95463 10.4866L5.08908 10.5531L4.55643 9.88732C4.48984 9.78745 4.35668 9.75416 4.22352 9.75416C4.09036 9.78745 3.99048 9.88732 3.95719 9.9872L3.75745 10.8195L2.95847 11.1191C2.82531 11.1524 2.75873 11.2855 2.75873 11.3854C2.75873 11.5186 2.79202 11.6184 2.92518 11.685L3.65758 12.1511L3.69087 13.0166C3.69087 13.1498 3.75745 13.2497 3.89061 13.3162C3.9239 13.3495 3.99048 13.3495 4.02377 13.3495C4.09036 13.3495 4.19023 13.3162 4.22352 13.283L4.88933 12.717L5.7216 12.9833C5.85476 13.0166 5.98792 12.9833 6.05451 12.8835C6.15438 12.7836 6.15438 12.6504 6.12109 12.5506L5.78818 11.7516L6.25425 11.0192C6.32083 10.9193 6.32083 10.7862 6.25425 10.653ZM5.15566 11.7849L5.28882 12.1178L4.95591 12.0179C4.78946 12.0512 4.68959 12.0512 4.58972 12.1511L4.32339 12.3841V12.0179C4.32339 11.918 4.25681 11.8182 4.15694 11.7516L3.85732 11.5518L4.19023 11.4187C4.2901 11.3854 4.35668 11.2855 4.38997 11.1857L4.48984 10.8195L4.72288 11.0858C4.78946 11.1857 4.88933 11.2189 5.02249 11.2189L5.38869 11.1857L5.18895 11.4853C5.12237 11.5851 5.12237 11.685 5.15566 11.7849Z" fill="black"/>
<path d="M9.91627 24.3355L9.38362 23.7362L9.51678 22.904C9.55007 22.7708 9.48349 22.6376 9.38362 22.5711C9.28375 22.5045 9.15058 22.4712 9.01742 22.5378L8.25174 22.9373L7.48605 22.5378C7.38618 22.4712 7.25302 22.5045 7.11985 22.5711C7.01998 22.6376 6.9534 22.7708 6.98669 22.904L7.11985 23.7362L6.52062 24.3355C6.42075 24.4353 6.38746 24.5685 6.42075 24.6684C6.45404 24.8015 6.55391 24.8681 6.68707 24.9014L7.55263 25.0346L7.91883 25.8003C7.98541 25.9001 8.08528 26 8.21845 26C8.35161 26 8.45148 25.9334 8.51806 25.8003L8.88426 25.0346L9.74982 24.9014C9.88298 24.8681 9.98285 24.8015 10.0161 24.6684C10.0494 24.5352 10.0161 24.4021 9.91627 24.3355ZM8.68452 24.3688C8.58464 24.3688 8.48477 24.4686 8.41819 24.5352L8.25174 24.8681L8.08528 24.5352C8.05199 24.4353 7.95212 24.3688 7.81896 24.3688L7.45276 24.3022L7.71909 24.0359C7.78567 23.9693 7.81896 23.8361 7.81896 23.7362L7.75238 23.37L8.08528 23.5365C8.18515 23.6031 8.28503 23.6031 8.3849 23.5365L8.71781 23.37L8.65122 23.7362C8.61793 23.8361 8.68452 23.9693 8.7511 24.0359L9.01742 24.3022L8.68452 24.3688Z" fill="black"/>
<path d="M1.85994 17.3777C1.22741 17.3777 0.694763 17.9104 0.694763 18.5429C0.694763 19.1754 1.22741 19.7081 1.85994 19.7081C2.49246 19.7081 3.02511 19.1754 3.02511 18.5429C3.02511 17.9104 2.49246 17.3777 1.85994 17.3777ZM1.85994 19.0423C1.59361 19.0423 1.36058 18.8092 1.36058 18.5429C1.36058 18.2766 1.59361 18.0435 1.85994 18.0435C2.12626 18.0435 2.3593 18.2766 2.3593 18.5429C2.3593 18.8092 2.12626 19.0423 1.85994 19.0423Z" fill="black"/>
<path d="M21.1019 0.599228C20.4694 0.599228 19.9368 1.13188 19.9368 1.7644C19.9368 2.39692 20.4694 2.92957 21.1019 2.92957C21.7345 2.92957 22.2671 2.39692 22.2671 1.7644C22.2671 1.13188 21.7345 0.599228 21.1019 0.599228ZM21.1019 2.26376C20.8356 2.26376 20.6026 2.03073 20.6026 1.7644C20.6026 1.49808 20.8356 1.26504 21.1019 1.26504C21.3683 1.26504 21.6013 1.49808 21.6013 1.7644C21.6013 2.03073 21.3683 2.26376 21.1019 2.26376Z" fill="black"/>
<path d="M17.906 22.6044C17.2735 22.6044 16.7408 23.137 16.7408 23.7695C16.7408 24.402 17.2735 24.9347 17.906 24.9347C18.5385 24.9347 19.0712 24.402 19.0712 23.7695C19.0379 23.1037 18.5385 22.6044 17.906 22.6044ZM17.906 24.2356C17.6397 24.2356 17.4067 24.0026 17.4067 23.7362C17.4067 23.4699 17.6397 23.2369 17.906 23.2369C18.1723 23.2369 18.4054 23.4699 18.4054 23.7362C18.4054 24.0026 18.1723 24.2356 17.906 24.2356Z" fill="black"/>
<path d="M17.7396 5.09347C17.6064 4.96031 17.4066 4.96031 17.2735 5.09347L15.5424 6.82459C15.4092 6.95775 15.4092 7.15749 15.5424 7.29066C15.609 7.35724 15.7088 7.39053 15.7754 7.39053C15.8753 7.39053 15.9419 7.35724 16.0084 7.29066L17.7396 5.55954C17.8727 5.42638 17.8727 5.22663 17.7396 5.09347Z" fill="black"/>
<path d="M14.1109 12.9501C13.9777 12.8169 13.778 12.8169 13.6448 12.9501L4.92263 21.6722C4.78946 21.8054 4.78946 22.0051 4.92263 22.1383C4.98921 22.2049 5.08908 22.2382 5.15566 22.2382C5.22224 22.2382 5.32211 22.2049 5.3887 22.1383L14.1109 13.4161C14.244 13.283 14.244 13.0832 14.1109 12.9501Z" fill="black"/>
<path d="M24.431 7.19079C24.2978 7.05763 24.0981 7.05763 23.9649 7.19079L12.2466 18.8758C12.1134 19.009 12.1134 19.2087 12.2466 19.3419C12.3132 19.4085 12.4131 19.4417 12.4796 19.4417C12.5795 19.4417 12.6461 19.4085 12.7127 19.3419L24.3977 7.65686C24.5309 7.52369 24.5309 7.32395 24.431 7.19079Z" fill="black"/>
<path d="M17.0738 0.099872C16.9406 -0.0332907 16.7409 -0.0332907 16.6077 0.099872L7.91884 8.78873C7.78568 8.9219 7.78568 9.12164 7.91884 9.2548C7.98542 9.32138 8.08529 9.35467 8.15188 9.35467C8.25175 9.35467 8.31833 9.32138 8.38491 9.2548L17.0738 0.565941C17.2069 0.432779 17.2069 0.233035 17.0738 0.099872Z" fill="black"/>
<path d="M14.0443 8.78873C13.9112 8.65557 13.7114 8.65557 13.5782 8.78873L7.15316 15.1805C7.01999 15.3137 7.01999 15.5135 7.15316 15.6466C7.21974 15.7465 7.31961 15.7798 7.38619 15.7798C7.48606 15.7798 7.55264 15.7465 7.61922 15.6799L14.0443 9.2548C14.1775 9.12164 14.1775 8.9219 14.0443 8.78873Z" fill="black"/>
<path d="M16.1416 20.274C16.0417 20.1408 15.8087 20.1408 15.6755 20.274L13.9444 22.0051C13.8113 22.1383 13.8113 22.338 13.9444 22.4712C14.011 22.5378 14.1109 22.5711 14.1774 22.5711C14.2773 22.5711 14.3439 22.5378 14.4105 22.4712L16.1416 20.7401C16.2747 20.6069 16.2747 20.4072 16.1416 20.274Z" fill="black"/>
<path d="M24.5308 11.8848C24.431 11.7516 24.1979 11.7516 24.0648 11.8848L17.6397 18.3099C17.5065 18.443 17.5065 18.6428 17.6397 18.7759C17.7062 18.8425 17.8061 18.8758 17.8727 18.8758C17.9726 18.8758 18.0392 18.8425 18.1057 18.7759L24.5308 12.3508C24.664 12.2177 24.664 12.0179 24.5308 11.8848Z" fill="black"/>
<path d="M22.0008 5.19334C21.8676 5.06018 21.6679 5.06018 21.5347 5.19334L15.7754 10.9526C15.6422 11.0858 15.6422 11.2855 15.7754 11.4187C15.842 11.4853 15.9086 11.5186 16.0084 11.5186C16.1083 11.5186 16.1749 11.4853 16.2415 11.4187L22.0008 5.65941C22.1339 5.52625 22.1339 5.3265 22.0008 5.19334Z" fill="black"/>
</g>
<defs>
<clipPath id="clip0">
<rect width="26" height="26" fill="white"/>
</clipPath>
</defs>
</svg>
